/* XPM */
static char *_0d706234d0842c5bd49353e1ba0fa34qAfuFPqWk94uS1HY[] = {
/* columns rows colors chars-per-pixel */
"55 55 198 2 ",
"   c #4D392B",
".  c #593723",
"X  c #56392B",
"o  c #523934",
"O  c #5B3F31",
"+  c #553D39",
"@  c #673D25",
"#  c #6D3E24",
"$  c #633C2B",
"%  c #6D3E2B",
"&  c #613B30",
"*  c #5B4538",
"=  c #694127",
"-  c #6B442B",
";  c #73442D",
":  c #72482F",
">  c #634536",
",  c #6C4334",
"<  c #674C37",
"1  c #6E4B34",
"2  c #6E463A",
"3  c #654A3B",
"4  c #6A4C3C",
"5  c #724433",
"6  c #744B34",
"7  c #794B35",
"8  c #734C3B",
"9  c #7B4E3C",
"0  c #6D523E",
"q  c #745135",
"w  c #7B5235",
"e  c #74523D",
"r  c #7C533C",
"t  c #7A583F",
"y  c #6A4E42",
"u  c #724E40",
"i  c #6D5343",
"p  c #6D554A",
"a  c #745442",
"s  c #7B5442",
"d  c #755945",
"f  c #7C5A45",
"g  c #735549",
"h  c #795348",
"j  c #755B4B",
"k  c #7C5C4B",
"l  c #6E5652",
"z  c #6D5950",
"x  c #7A5D51",
"c  c #7A5F58",
"v  c #77624F",
"b  c #7C614E",
"n  c #766053",
"m  c #7C6254",
"M  c #7D655A",
"N  c #7C6A5E",
"B  c #814F36",
"V  c #844F3A",
"C  c #825737",
"Z  c #82533C",
"A  c #89573E",
"S  c #845A3E",
"D  c #8A583F",
"F  c #835544",
"G  c #895642",
"H  c #845A44",
"J  c #8B5C45",
"K  c #805648",
"L  c #845D4B",
"P  c #8B5D4B",
"I  c #915B46",
"U  c #935E49",
"Y  c #865F51",
"T  c #856147",
"R  c #8B6246",
"E  c #84624D",
"W  c #8C624C",
"Q  c #85694D",
"!  c #8B694E",
"~  c #906446",
"^  c #93634D",
"/  c #98644E",
"(  c #936A4E",
")  c #986B4E",
"_  c #846453",
"`  c #8B6453",
"'  c #856955",
"]  c #8B6A55",
"[  c #82655A",
"{  c #8A6759",
"}  c #856A5B",
"|  c #8C6C5B",
" . c #926553",
".. c #996652",
"X. c #946B54",
"o. c #9A6B54",
"O. c #946C5A",
"+. c #9B6D5C",
"@. c #8D7156",
"#. c #87725F",
"$. c #8C715D",
"%. c #957157",
"&. c #9B7256",
"*. c #93725C",
"=. c #9B725C",
"-. c #96795F",
";. c #9C785E",
":. c #A16C56",
">. c #A07555",
",. c #A2745C",
"<. c #A9765F",
"1. c #A47A5E",
"2. c #A97C5E",
"3. c #816761",
"4. c #866E60",
"5. c #8B6E61",
"6. c #8D6E69",
"7. c #916E62",
"8. c #877060",
"9. c #8D7363",
"0. c #8D746B",
"q. c #947463",
"w. c #9C7462",
"e. c #957963",
"r. c #9B7A64",
"t. c #937669",
"y. c #9C7668",
"u. c #947A6B",
"i. c #9C7C6A",
"p. c #9C7D72",
"a. c #A27663",
"s. c #A97760",
"d. c #A37B64",
"f. c #A97D65",
"g. c #A57C68",
"h. c #A37C6B",
"j. c #AA7F6D",
"k. c #A97E6B",
"l. c #A37F73",
"z. c #9F8467",
"x. c #96816E",
"c. c #9D816D",
"v. c #978072",
"b. c #9E8274",
"n. c #9C8079",
"m. c #9F887A",
"M. c #A38066",
"N. c #A98166",
"B. c #AC8266",
"V. c #AC8166",
"C. c #A4826C",
"Z. c #AA8068",
"A. c #AA8169",
"S. c #AD836B",
"D. c #AB806F",
"F. c #AC826D",
"G. c #AF856E",
"H. c #AB836C",
"J. c #A3886B",
"K. c #AA886F",
"L. c #B18666",
"P. c #B1866D",
"I. c #B2846A",
"U. c #B2886D",
"Y. c #A48372",
"T. c #AF8473",
"R. c #AB8472",
"E. c #A68870",
"W. c #AC8A75",
"Q. c #A38579",
"!. c #AE8778",
"~. c #AC8B7B",
"^. c #B28776",
"/. c #B28772",
"(. c #B28970",
"). c #B48A75",
"_. c #B78D75",
"`. c #B38B74",
"'. c #BA8E73",
"]. c #B48A79",
"[. c #B68D78",
"{. c #B48E7C",
"}. c #AF9177",
"|. c #AB907D",
" X c #B49177",
".X c #B89077",
"XX c #B89076",
"oX c #B4927C",
"OX c #BA9179",
"+X c #BA907F",
"@X c #BC947D",
"#X c #B49482",
"$X c #BB9280",
"%X c #BD9381",
"&X c #C19786",
"*X c #C09680",
"=X c #C29A81",
"-X c #CBA189",
/* pixels */
"d.,.,.OXN.`.F.(.j.j.].j.w.w.+.d.s.L.>.,.B.&.>.X.^ J P Z 5 9 ^ ^ +...K K U  .....U ..+.+.a.a.+.l.a...U <.U <.:.",
"Z.Z._.P.Z.Z._.F.a.+.+. . .O.O.+.X.2.>.>.1.&.=.,.X./ +...P  . .P 6.P K U U P K K h K ..K 6.U U U ..G ..V I V :.",
"(._.-XZ.G.Z.%XZ.*X^.j.^.&X&X*Xj.&.L.f.B.S.>.f.P.1.,.s.d.+.a.7.P ..U ..6.6.+.....+.a.6.:.+.+.+.6.:.U <.:.<...<.",
"S.G.OXf.f.f.`.a.a.q. .a.^.j.k. .R &.( X.o.R ( o.,.o.+.o.U P U F 5 h U U K V P 6.K ..5 K 2 U V U V 5 5 ..U ..V ",
".XU.G.=X.X@XOXG.].].g.].&X+X$Xg.;.N.&.&.1.%.&.X.+...a.+.P  ... ......... . . .+.+.a.+.+...+. .+.:.U U j.:.s.:.",
"N.=.X..XA._.d.;.w.d.L X.+.` h.X.1.d.! X.1.X.X.R 9 F U U F F U F 6.P h K  . .U K V K +.2 ..2 V 5 P F U % V % U ",
" XH.G.XXXX@X[.f.`.$Xw.T.!.d.$Xj.A.K.X.=.H.d.d.O.+.+.a.+...+.a.+.+...P  .6...+.+...+.y.K y.U ....a...a.U U V :.",
"&.%.d.W &.%.w.H X.g.P y.g.O.g._ ] ] f T %.] X.W a. .I F 5 F  .U K Y ..P V , 9 U h ..5 V & ..K y.U  .U a.I ..I ",
"`.K.`.;.K.S. XH.N.W.W.`.W.R.y.=.e.N.K.r.=.] ` =.+. .P  .a.a.,...a.+. .a...y...6. ... .P  .+.+.+. . . .s.^ +.P ",
"%.N.;.H.;.H.=.;.] w.h.y.O.X.O.r.c.i.*.@.=.X.E L % r  . .G V  .s.+.K P K +.P  .K K P P K K  .P F a.U +.G ..P ,.",
"z.U.K.@XM.G.z.N.C.K.R.h.w.*.r.R.C.E.i.e.Y.c.q.=.L  .o.o... ...+.+. .+.P +.P .. .P ....Y U  . .K g.o.a. .+.X.F.",
";.;.K.%.M.X.r.%.=.! L L ` O.] ] _ $.q.| ] E _ *.w. .L J ....G 7 P .. .+.h G K .. . .P K K  ...+.J U  .f.^ =. .",
"B.M.K.;. X;.K.d.r.*.] q.h.R.D.Y.e.Y.b.e.$._ ` O.a.a.a.a.+.+...:...+. .+.K ..P .. . . .Y P ..w.+.` ..X.g. .+. .",
"%.%.%.B.;.N.] ] | X.=.r.*.` ] r.e.9.} m | | L E ` { .. .G G U ..l.+.+.K a.+.y. . .+.+.y.w.a.w.+.k.7.g. .O.` f.",
"M.J.d. XM.J.%.%.%.%.r.h.O.L E $.x.u.e.9.i.i.w.y.r.O.` U ..o...o.+. .P 9 +. .+.K P ....+... .`  .+.` +.H P F +.",
"M.;.M.%.;.T ! X.r.*.*.h.h.e.*.i.| e.e.$.' Q _ =.E s 9 r F P  . . .+. .+.h  .Y +.+.6.+.+.7.o.w.a...O.+.F. .=.O.",
"N.T.%.=.f.( ( ;.`.%.w.r.q.y.9.q.e.e.@.Q @.b Q -.Q t t Q @.-.;.%.W =.' *.E ` L h.O.] ` `  . .O.O.+.X.+.O.W L H ",
"r.F.o.=.B.o.&.N.Z.o.r.=.| q.u.p.c.z.@.@.@.@.@.J.z.@.z.@.Q Q -.-.r.] | E h.%.*.O._ ` O.=.w.w.+.O.*.*.f.F.g.j.R.",
"=.d.( &.f.( ) 2.o.! *.E a E ' ' e.z.e.@.%.] $.J.$.%.e.*.Q Q %.-.e.] _ s r.] _ L a s P ` ` ` Y P  .` w.k.d.d.F.",
"h.W.*.d.H.o.( ;.=.&.H.=.X.r.e.%.] -.r.e.e.@.] =.-.] $.z.r.z.r.' ] i.O.w._ ] H O.X.] O.X.O.+.a.a.=.=.h.Z.a.y.F.",
"e.C.] %.;.R S ~ S S &.X.%.M.%.Q f _ _ _ ] f a E b.q.i.C.c.C.r.] s =.{ =.L L 8 W L P L L P Y  .7.P H W ( P W %.",
"E.oXi.K. X;.&.1.) ~ 2.1.;.N.) T d.i.q.O.e.| | i.*.O.r.q._ _ | *.q.r.h.] F.*.O._ P `  .O.O.o.+.+.=.` X.%.X.+.Z.",
"$.u.' %.M.T S ~ >.~ ;.&.( ) R R =.| _ k ` _ Y O.{ ] 7.O.Y _ *.q._ H s - W L F 6 9 F W  .^ P P P %.P W +. .( ,.",
"c.|.i.C.}.&.( &.L.>.L.L.2.N.N.XXY.i.r.w.Y.l.h.l.l.w.w.i.h.h.i.O.=.r.L E J w. .O.` +.a.s.w.+.:.+.,.W X.g.d.d.F.",
"u.-._ ] ] H %.&./ 2.o.) R >.%.d.L { O.O.K w.{ y.Y _ Y y.Y O.Y L H w.J W 7 w 9 J F o.s U % ..J U J ; G ( o.7 ~ ",
"b.b.e.W.W.d.G.L.f.'.1.N.;.S.=.f.y.a.h.l.7.l.O.h.!.R.].#X!.l.!.h.g.G.%.+.=.` O...^ ,...o.U ,.....^ W o.d. . .+.",
"' _ k *.;.] &.X.=.>.P o.&.=.! *.O.7.a.w. .h.P ` O.Y w.` O.L  .L X.J r 7 +.Z X.~ P G o.....P I V J  .( 1.Z / ~ ",
"W.Y.=.i.F.g.U.H.U.P.f.^.OX[.R.[.a.a.h.q. .a.O.O.j.a.j.g.j.g.l.a.o.X.J  .I./ ,.s. .U :...:.I I I ^ ^ / o.H ^ W ",
"w.7.L  .] ` +.X.^ P Y ` O.Y k _  .P O.F r H K W ` J s P F  .P s P o.Z ..U V V U U U U o.U U U U o.Z J ~ o.~ / ",
"k.l.h.j.].F.^.f.w.w.h.7.l.7.t.i.h.w.j.U `  .X.+.g.=.P ;.P a. .P J o.H >.J G Z U V G V J V I U U o.7 J J &.J =.",
"P 7. .7.a. . .G L L Y h 6.5.6.6.O.W a.W o.( ^ J  .P W / H J F V J X.F J ^ P U ..U U :.U U / :.^ ,.) ) ( ~ ( ,.",
"y.j.k.j.g.7.w. .y.y.y.Y l.l.p.q.` H a.X.k.d.+.W %. .k.%.+.W +.X.a.w.P r =. .a./ ..:.j.I <.I :.C / :./ I # D D ",
"{ Y u { q.s Y h.| 7.a 7.h _ t.| e.W.] ] i.] _ O.` ] j.L {.h.w.h.y.} 4._ p.]  .a.o.G f...:.(.) 1.2.) ~ ,.J 2.f.",
"h.h._ y.r.{ | i.9.O._ q._ | | | d ] e a { f f ] L ` O.L +.` F { 3.N n [ [ Y L { s 7 o.^ / >.w C ~ C Z ) w / ~ ",
"_ i.h | | q.*.q.r.| 7.q._ e._ _ Q q.Q | C.*.w.E.O.h.Y.q.q.d._ i.t.u.4.n.5.r.{ a. .U f.o.&.2.~ &.1.) &.N.) >.>.",
"k q.h q.| 7.' O.i._ q.O._ q.k L d _ a Q *.' ] =.L X.=.L X.O.H *.b b n | L L P  . .P o.J S R S R ) w w R : w H ",
"i.~.i.~.Y.e.| u.q.k q.] { q.| *.e.z.@.w.K.r.z.;.*.*.H.E T.r.;.C.i.$.c.i.y.X.d.=. .&.B.d.>.;.( ~ G.%.&.1.! R %.",
"] q._ q.q.k L _ k 4 _ g h k | | E E d Q ] f k e 8 1 T . ] q 8 q E 8 W t F 6 W 7 ; 7 7 : 5 : - = ( q T T t = 6 ",
"i.Y.i.O.{.i.~.i.!.Y.#XW.Y.e.#X~.z.J.J.}.K.r.K.z.] %.z.Q N.-.] ;.M.! ;.d.X.&.N.X.>.;.X.^ ( %.=.%.r.T =.;.&.T =.",
"_ { k X | h | 4 q.i.i.*.| , | k e b Q @.T t ] ' 1 b Q t E Q e ! r - : H @ H W w H P H W W R R t ] 1 T T Q t r.",
"h.#XY.q.Y.h.7.i.~.Y.q.O.Y._ Y.W.r.W.e.w.$.z.] E.$.] i.J.@.W.] ] =.%.W Z.d.H.%.;.=.1._.J @Xg.g.G.W.=.i.' %.Q M.",
"| { k k | k a q._ { g Y _ a k | E e.` ] Q Q d ] ' f Q Q d -.] | %.` f ` f ` W &.f W ] r %.=.P =.L f f ] ' w.H.",
"Y.i.r.l.h.5.7.Y.e.W.| W.*.{ | l.k O.{ r.q.e.] -.Q Q @.$.b $.Q Q ] ] L O.L E b @.Q w.Q X.J ,.r X.s a 8 ] e Q L ",
"_ | q.q._ ] _ a 7.W.t.Y.q._ _ q.] 7.r.i.e.q.| | | | x.c.#.e.#.b [ _ | $._ k b m ] w.] O.L d.F O.q.q.| h.] w.w.",
"| q.Y.Y.e.q.q.] { i.i.q.i.k _ ] { { { [ x a i 3 j j k g i p m j Y l g y 4 * 0 v 0 a f f J o.J  .K u k h s 2 L ",
"| Y _ | | h k q.{ q.q.| Y._ q.{ l.y.l.p.y.5.e.{ 9.9.u.9.t.} x.m N c 3.c N p j v ' Q i.X.r.d.s.,.h.{ y.Y O.P y.",
"_ _ h b _ u a q._ | k _ | _ _ h Y h 3.Y [ x 4.x } 9.0.u.v.M 4.* + + l p z       i < Q s H F r 7 2 & , 2 8 u  .",
"q.oXQ.q.i.i.5.Y.Q.oX{ i.i.Y.*.| Q.7.Q.p.l.6.n.4.p.t.0.u.m.8.m.x M 3.p.0.0.i m } } _ i.r.O.s.+. .y.7.Y q.K  . .",
"| 9.v N j 9.[ } t.p._ k h d b e 0 j 4.X q.O y 3 g y k y j g } g x 4.i i g 3 ' { j k O.k 5 s h 9 s 2 $ a P 9 8 ",
"x.u.x.0.u.u.n.n.~.l.6.i.c.e.b.E.#.b.Q.' Q.9.4.t.u.0.4.9.| t.9.k c 7._ _ { L q.y.O.{ h.7.Y O.Y k { L a _ Y 8 s ",
"v y j i M y m { x i > d b 0 E ' ' i.| 4.5.t._ 0.9.' g 9.m i.M i u _ f k _ k _ ` ` Y 7.` L ` h % L L 9 L a $ 2 ",
"x.#.8.8.0.x } 0.4.| [ 9.| b @.$.#.b.4.t.q.p.4.t.} m x 9.4.p.} j h ' k _ _ x L _ ` L O.` Y { k 8 _ _ s L K 8 L ",
"#.} n } p y 3 x x 9.4.| E d Q d $.9.| m 9.} | ' 9.} 9.9.i.#.$.j _ ' _ k _ _ Y | _ h { _ Y O.` _ _ _ s _ ` L ` ",
"#.#.n 4.y g y c g 9.5.' _ Q | f b i m 3 ' i n 3 ' j | ' 9.m #.m _ b k a k _ L q.L u _ L k |  .O.H f 8 f P k _ ",
"e.u.t.9.M n M 0.M 9.' | q.q.r._ q.m e.' i.#.u.b ' x ' #.$.| e.9.#._ ' d _ q.' p.q.Y | { O.l.i.y.] ] L | *.` O."
};
