/* XPM */
static char *bitcoin_pixel_art_isolated_crypto_currency_bit_cryptocurrenc_bitcoin_pixel_art_isolated_crypto_currency_bit_cryptocurrency_digital_119049405_2__1__removebg_preview__1_1679098765[] = {
/* columns rows colors chars-per-pixel */
"32 32 67 1 ",
"  c None",
". c #EDAF3B",
"X c #EBB23B",
"o c #ECBC3E",
"O c #EDC03E",
"+ c #EAAC4A",
"@ c #ECB543",
"# c #EDBB42",
"$ c #E9B44C",
"% c #EFBE4B",
"& c #E6AE56",
"* c #E7B55D",
"= c #E8BF5C",
"- c #E7B762",
"; c #E5BB65",
": c #E7C247",
"> c #EEC443",
", c #EECB41",
"< c #EEC54D",
"1 c #EECB4A",
"2 c #F3C343",
"3 c #F4CD46",
"4 c #F8CD47",
"5 c #F2C44C",
"6 c #F5CD49",
"7 c #F9CC4A",
"8 c #F3D045",
"9 c #F9D047",
"0 c #F6DA47",
"q c #F5D44B",
"w c #F9D54C",
"e c #F6DB4C",
"r c #F9DC4D",
"t c #EBC553",
"y c #ECC954",
"u c #E6C35C",
"i c #EFCB5C",
"p c #F1C352",
"a c #F0C75F",
"s c #EFD055",
"d c #F3D455",
"f c #F8D751",
"g c #F5D953",
"h c #FADE51",
"j c #F4DA5B",
"k c #F7E14D",
"l c #FAE34E",
"z c #FBEC4E",
"x c #F7E352",
"c c #FAE451",
"v c #FCEB52",
"b c #FBE65A",
"n c #FDED5A",
"m c #EBC664",
"M c #F4CE64",
"N c #F2CE6A",
"B c #EACB7D",
"V c #F2D475",
"C c #F6D67D",
"Z c #F3D87B",
"A c #F2D985",
"S c #F1D888",
"D c #EFDE95",
"F c #F1DC90",
"G c #EFE098",
"H c #F7EBAE",
"J c #FAECB2",
/* pixels */
"                                ",
"                                ",
"                                ",
"                                ",
"                                ",
"             JACCSH             ",
"           AVM%.X%MNZ           ",
"         JV5X.>rh2XX%MV         ",
"        Aa#okllvlllho@t         ",
"       Dy#ecvl0e8lvvcw#<        ",
"       Z>0nlxe346rxlzve>        ",
"      Stqnl>O42o#2sqlzz0:       ",
"      V1evz8,16>>3660czr1       ",
"      t3vzznc8wvvvw68zzn6:      ",
"      skvzzzz80zvr6XOlzve1      ",
"     Gjvzzzzlq68936qevzzvg      ",
"     Djzzzzvl42XXX2welzzzg      ",
"      jzzvvlz8qhlrlq40zzlj      ",
"      yrznnnl8evvvcq63zzki      ",
"      =fzznbx8wllxq>#2vlrm      ",
"       5kvz,>O4881oo2lvcyB      ",
"       mhcc,O2224>2xzzvgu       ",
"        teznvrooX0czzze5        ",
"        -<0rcker8kvzrw2         ",
"         -$50rvnnvhw6@          ",
"           *$7996q6@            ",
"             &+++$              ",
"                                ",
"                                ",
"                                ",
"                                ",
"                                "
};
