/* XPM */
static char *bitcoin_pixel_art_isolated_crypto_currency_bit_cryptocurrenc_bitcoin_pixel_art_isolated_crypto_currency_bit_cryptocurrency_digital_119049405_2__1__removebg_preview__1___1_1679180301[] = {
/* columns rows colors chars-per-pixel */
"55 55 89 1 ",
"  c None",
". c #EDB63B",
"X c #EDBC3E",
"o c #F1BD3F",
"O c #ECC13F",
"+ c #F0C23F",
"@ c #EBAF4B",
"# c #EDB644",
"$ c #EDBC43",
"% c #EBB24D",
"& c #EEBB4A",
"* c #F1BE42",
"= c #F1BF4B",
"- c #E9B352",
"; c #EDBC54",
": c #EABA5B",
"> c #F1BF50",
", c #E7B662",
"< c #E8B662",
"1 c #E6BC63",
"2 c #E9BC66",
"3 c #EEC342",
"4 c #EFCA45",
"5 c #ECC34C",
"6 c #EECB4B",
"7 c #F2C544",
"8 c #F3CC46",
"9 c #F2C34A",
"0 c #F4CD4A",
"q c #F9CE49",
"w c #F4D246",
"e c #F6D947",
"r c #F5D44A",
"t c #F9D54B",
"y c #F6DB4B",
"u c #F9DD4D",
"i c #EEC554",
"p c #EDCB52",
"a c #E6C35B",
"s c #EDC45A",
"d c #EECB5B",
"f c #F0C653",
"g c #F1CD53",
"h c #F2C659",
"j c #F0C95D",
"k c #EED255",
"l c #F3D352",
"z c #F5DB53",
"x c #F8DD51",
"c c #F2D55E",
"v c #F4DB5A",
"b c #F7E04D",
"n c #FAE44E",
"m c #FBEC4F",
"M c #FBE551",
"N c #FCEB51",
"B c #FBE659",
"V c #FDED59",
"C c #ECC664",
"Z c #ECCA61",
"A c #E9C66B",
"S c #EDCC6B",
"D c #F0C760",
"F c #F1CB63",
"G c #F1CC6A",
"H c #EED065",
"J c #F1D566",
"K c #F1D36A",
"L c #F2DB6B",
"P c #EECB71",
"I c #EFD275",
"U c #F1D373",
"Y c #F4D57B",
"T c #F4D87E",
"R c #EFD681",
"E c #EFDE8F",
"W c #F2D684",
"Q c #F4DA84",
"! c #F3DC8C",
"~ c #EFDF90",
"^ c #F2DE92",
"/ c #F5E197",
"( c #F4E39C",
") c #F7E5A3",
"_ c #F9E6A2",
"` c #F6E6AB",
"' c #F8E7AA",
"] c #F8EBAB",
"[ c #FAEDB1",
/* pixels */
"                                                       ",
"                                                       ",
"                                                       ",
"                                                       ",
"                                                       ",
"                                                       ",
"                                                       ",
"                                                       ",
"                        '____)`                        ",
"                      [(!WYYYY!)]                      ",
"                   /^QQYFh;;;sFUTYW                    ",
"                  /TKGDh=$#.#&9hhFGKW                  ",
"                 !Yji$##$7wer7*##%9hFS                 ",
"               ^QPh9Xoo*8tnnnt8+7*=&5sF                ",
"              QUD5$#8eyuunmnnnbbut8$#$fh               ",
"             WSs950wynMMnunbennmNMyw855&d              ",
"             Ii53rbMNNNbyyytwunNNNNNyr4$5              ",
"            QK54rxMMMMbzewwq0yuMMNNmNb645              ",
"            IH6rMMMuuyyrw8779qtxxbnnMmbr66             ",
"           RdprbMMbw33808+oo*79llyunNNmyr6             ",
"           Up6rMNNb4OO4877oXX340lrrumNNmr45            ",
"          TKpwybNNbw448408+87800000ynmmNb66            ",
"          Sd6rMmmmmnbyrwwtyyuxzrqq8enmmmMy65           ",
"          ZprbNmmmmVmMywruNNNNMtr98qnmmmMu46           ",
"          HkrbNmmmmNmneweummNMut7$.ObmmmMbe6p          ",
"         ELlbmNmmmmmmneweynnnutq7738bmmmmmbzk          ",
"         /LvnmmmmmNNmnt8qqwrqq8q00rtnmmmmmnzv          ",
"         ~LzNmmmmmNNmnu877**oo*70rwunmmmmmMvv          ",
"         ELvmmmmmmmmmneq7*....X70rwunmmmmmmbv          ",
"         ELBmmmVVmmmmnewq8qr8wqyytrwenmmmmMvc          ",
"          JkmmmmmmVmmmeweynnnnnmurwwwbmmmMMzJ          ",
"          HkzmmmVVVVNneqruNNmmmnnr0we+mmmbxkd          ",
"          apznmmNVVVVMy0rxMNmNMbz8577rnmmnzdZ          ",
"          1slunmNVVVBxwrwxnnbMby843$7wMmnnlZA          ",
"           CgtnmNNMy64488rryrr077+$7wxNMntpS           ",
"           PhgunNMb4OXO3888w083$oO78xMNMxgdA           ",
"            ajxMMNn4OO$77778q7337runmmNMzpa            ",
"            PdguMMnrw8887+++7888ynNNmmMuld             ",
"             SfrxMNNnMur7OXXo8yMmmmmmnur6              ",
"              ;f0uMMNNMuw88OOwnMNNnnnuq85              ",
"              2sfqtuuMMuuburwybmmMnutq8                ",
"               2;>90tuuMbMMnbbmMuur099                 ",
"                <-;996txnNNMmmbxt099&                  ",
"                  <:;&00etttrrrr8&=                    ",
"                    <:>=97=99900i                      ",
"                      <-@@@@%%-:                       ",
"                                                       ",
"                                                       ",
"                                                       ",
"                                                       ",
"                                                       ",
"                                                       ",
"                                                       ",
"                                                       ",
"                                                       "
};
