/* XPM */
static char *pixel_art_8bit_moon_icon_260nw_1488741668_2__1__removebg_preview__1_1679098802[] = {
/* columns rows colors chars-per-pixel */
"32 32 125 2 ",
"   c None",
".  c #4C4624",
"X  c #4D4625",
"o  c #494D37",
"O  c #6C663C",
"+  c #656140",
"@  c #75724B",
"#  c #797149",
"$  c #7F7A4D",
"%  c #8C8556",
"&  c #8D8758",
"*  c #9E9257",
"=  c #9E9863",
"-  c #A49662",
";  c #A19E70",
":  c #ADA265",
">  c #ABA26F",
",  c #B0A062",
"<  c #B3AA6B",
"1  c #B4AE7C",
"2  c #D0BF75",
"3  c #D5C172",
"4  c #D4C176",
"5  c #D3C27E",
"6  c #DAC47A",
"7  c #DCC97B",
"8  c #E9D47C",
"9  c #ECDA7D",
"0  c #CDC183",
"q  c #CEC68B",
"w  c #D2C781",
"e  c #DBCF80",
"r  c #DACC86",
"t  c #D7CB8E",
"y  c #E1D282",
"u  c #EEDF81",
"i  c #E8D884",
"p  c #EFDF84",
"a  c #E0D188",
"s  c #E3D58A",
"d  c #E6DA89",
"f  c #E4DA8A",
"g  c #F2DF84",
"h  c #EADF93",
"j  c #E1DA98",
"k  c #EFE082",
"l  c #EFE388",
"z  c #EFE289",
"x  c #F1E182",
"c  c #F1E285",
"v  c #F2E087",
"b  c #F3E187",
"n  c #F0E189",
"m  c #F3E089",
"M  c #F2E289",
"N  c #F1E28A",
"B  c #F0E28B",
"V  c #F2E38A",
"C  c #F3E38C",
"Z  c #F4E28C",
"A  c #F3E48E",
"S  c #F4E58F",
"D  c #E8E098",
"F  c #EEE29A",
"G  c #ECE19C",
"H  c #EFE59D",
"J  c #F3E390",
"K  c #F7E392",
"L  c #F2E692",
"P  c #F5E590",
"I  c #F4E591",
"U  c #F4E592",
"Y  c #F3E395",
"T  c #F6E695",
"R  c #F6E497",
"E  c #F5E796",
"W  c #F8E391",
"Q  c #F6E895",
"!  c #F6E896",
"~  c #F6E79D",
"^  c #F4E89B",
"/  c #F7E99B",
"(  c #F7E89D",
")  c #F7EA9F",
"_  c #F8E99A",
"`  c #F8EA9B",
"'  c #F8E89E",
"]  c #F8E99F",
"[  c #F9EB9E",
"{  c #F9EA9F",
"}  c #F9EB9F",
"|  c #F9ED9E",
" . c #EBDFA9",
".. c #E7E0A5",
"X. c #F3EBA5",
"o. c #F8EAA1",
"O. c #F9EBA2",
"+. c #FDEBA3",
"@. c #F9ECA1",
"#. c #F9ECA2",
"$. c #FAECA2",
"%. c #F9EBA4",
"&. c #FBEBA5",
"*. c #FCEBA4",
"=. c #FAECA4",
"-. c #FAEDA4",
";. c #FBEDA4",
":. c #FAEDA5",
">. c #FAEEA4",
",. c #FAEDA6",
"<. c #FBEDA6",
"1. c #FAEEA6",
"2. c #FDEEA7",
"3. c #FBEBAB",
"4. c #F9EDA8",
"5. c #F8ECA9",
"6. c #FAECA8",
"7. c #FBECA8",
"8. c #FBEDA8",
"9. c #FBEFA8",
"0. c #FCECA9",
"q. c #FFEDA8",
"w. c #FFEEA9",
"e. c #FDECAA",
"r. c #FCECAD",
/* pixels */
"                                                                ",
"                                                                ",
"                                                                ",
"                                                                ",
"                                                                ",
"                                                                ",
"                                                                ",
"                                                                ",
"                                                                ",
"                              X X                               ",
"                          = 0 t t q ;                           ",
"                        w H w.w.w.6.X...                        ",
"                      5 R 2.3.6.6.6.6.r. .                      ",
"                    * i _ %.6.>.>.` 6.6.F 1                     ",
"                    2 Z >.6.>.>.>.! R I | j                     ",
"                    4 K >.O.~ ~ ` A k N ` D                     ",
"                    3 m ~ O.O.` C p C J ! h                     ",
"                    7 9 l O.$.( N z J l ! G                     ",
"                    , 8 N O.%.O.I ` ! k Y >                     ",
"                      6 W +.e.` C I c c r +                     ",
"                      - a ` +.R c x N y % o                     ",
"                        @ < s f d e : O                         ",
"                            # $ %                               ",
"                                                                ",
"                                                                ",
"                                                                ",
"                                                                ",
"                                                                ",
"                                                                ",
"                                                                ",
"                                                                ",
"                                                                "
};
