/* XPM */
static char *pixel_art_8bit_moon_icon_260nw_1488741668_2__1__removebg_preview__1___1_1679180301[] = {
/* columns rows colors chars-per-pixel */
"55 55 106 2 ",
"   c None",
".  c #4D4E36",
"X  c #605D3E",
"o  c #656038",
"O  c #69633A",
"+  c #766D3B",
"@  c #5E5F41",
"#  c #616041",
"$  c #6C6A42",
"%  c #6D6B48",
"&  c #706D49",
"*  c #777247",
"=  c #847C4B",
"-  c #837D53",
";  c #878055",
":  c #8D8654",
">  c #918A58",
",  c #9B8E5D",
"<  c #9E9256",
"1  c #97915C",
"2  c #9B935F",
"3  c #A2935B",
"4  c #A2985E",
"5  c #9C9560",
"6  c #9B976A",
"7  c #A59D64",
"8  c #AB9E60",
"9  c #A79D6A",
"0  c #ABA062",
"q  c #AEA76D",
"w  c #B3A263",
"e  c #BBAB66",
"r  c #B1A76E",
"t  c #B5AA6F",
"y  c #BAAB6A",
"u  c #ACA370",
"i  c #AEA874",
"p  c #BAAD72",
"a  c #B7AF78",
"s  c #BFB470",
"d  c #B6B17E",
"f  c #BBB179",
"g  c #C0AF66",
"h  c #C3B36C",
"j  c #CBB96F",
"k  c #C1B675",
"l  c #C8B770",
"z  c #C6B972",
"x  c #C9BC77",
"c  c #CABC7A",
"v  c #D1BC75",
"b  c #CEC177",
"n  c #CDC37D",
"m  c #D2C176",
"M  c #DCC777",
"N  c #D3C47D",
"B  c #DAC778",
"V  c #D3C87E",
"C  c #DDCB7C",
"Z  c #E2CE7A",
"A  c #E0D07F",
"S  c #E8D57C",
"D  c #BFBA83",
"F  c #C2BA84",
"G  c #C8BC80",
"H  c #CDC589",
"J  c #D2C580",
"K  c #D3C788",
"L  c #D2CA8E",
"P  c #DDCF88",
"I  c #DDD38D",
"U  c #DDD492",
"Y  c #E5D383",
"T  c #E5D884",
"R  c #ECDB83",
"E  c #E2D48C",
"W  c #EBDC8B",
"Q  c #F0DE84",
"!  c #F0DE8B",
"~  c #E2D596",
"^  c #E3D995",
"/  c #EBDD93",
"(  c #E6DC9D",
")  c #E8DD98",
"_  c #EFE185",
"`  c #EFE388",
"'  c #F1E186",
"]  c #F2E38C",
"[  c #EEE396",
"{  c #ECE29B",
"}  c #F4E593",
"|  c #F8E797",
" . c #F6E897",
".. c #F5E69A",
"X. c #F6E99B",
"o. c #F9E99D",
"O. c #E4DBA3",
"+. c #E4DDA8",
"@. c #E8DDAB",
"#. c #EFE4AC",
"$. c #F4E6A3",
"%. c #F6E9A4",
"&. c #FAECA4",
"*. c #F2E6AB",
"=. c #F5EBA8",
"-. c #FBEDA9",
/* pixels */
"                                                                                                              ",
"                                                                                                              ",
"                                                                                                              ",
"                                                                                                              ",
"                                                                                                              ",
"                                                                                                              ",
"                                                                                                              ",
"                                                                                                              ",
"                                                                                                              ",
"                                                                                                              ",
"                                                                                                              ",
"                                                                                                              ",
"                                                                                                              ",
"                                                                                                              ",
"                                                                                                              ",
"                                                                                                              ",
"                                                  O X O X X                                                   ",
"                                              5 r p f f k p i 9                                               ",
"                                            u k K U ~ ~ ~ U L F d                                             ",
"                                        p H P ) $.%.&.%.&.&.%.O.( O.+.                                        ",
"                                      p J E [ &.-.-.-.-.-.-.-.-.=.#.#.@.                                      ",
"                                    3 c P } o.-.-.-.-.-.-.-.&.-.-.-.*.O.                                      ",
"                                    8 B W | &.-.-.-.&.-.-.&.%.-.-.-.$.( F                                     ",
"                                  < y A } ..&.&.&.-.-.&.&.o.%.&.-.%.X.[ H d                                   ",
"                                  e v R  .o.&.-.&.-.-.&.&.X. .X.| } X. .U L                                   ",
"                                  s C ] X.&.-.-.&.o.&.-.o.X. .] ] } X.X.{ U                                   ",
"                                + e C ! o.&.&.X.X.X.%.X.o.} ] ` ` ]  .X.{ I                                   ",
"                                + e C ]  .o.&.&.o.X.X.X.} ] ` ' ` `  . .{ U                                   ",
"                                  g C Q } X.X.o.&.o.o.} ' _ _ ' ] ]  . .[ E                                   ",
"                                  j Z S ` ] X.&.&.&.X.} ] ` ] ] } ] ]  ...^                                   ",
"                                  l B S ' ' X.o.&.o.X.} ` ] ]  .] ` ]  .^ L                                   ",
"                                  w l Z S ]  .&.&.&.%. .}  .X. .] _ ] / G u                                   ",
"                                    w C R ] o.&.&.-.%.| ]  .o.} ' ' ] Y 9 -                                   ",
"                                    3 v Y } o.&.-.&.o.} ] ] ] ] ' ' T c ; X                                   ",
"                                      y v ! ..&.&.&.| } ' ' ' ' ] R x 7 & .                                   ",
"                                      , p J E { ..| } ! _ _ _ T Z c q * @                                     ",
"                                        - 5 r n E / W W W T C z 8 : * #                                       ",
"                                          % : 7 k v n J V n z 4 = o                                           ",
"                                              $ - > > 2 2 2 : O                                               ",
"                                                                                                              ",
"                                                                                                              ",
"                                                                                                              ",
"                                                                                                              ",
"                                                                                                              ",
"                                                                                                              ",
"                                                                                                              ",
"                                                                                                              ",
"                                                                                                              ",
"                                                                                                              ",
"                                                                                                              ",
"                                                                                                              ",
"                                                                                                              ",
"                                                                                                              ",
"                                                                                                              ",
"                                                                                                              "
};
