/* XPM */
static char *tumblr_5310eb96570ee4e51acae3ae0f57fd2e_cac009e7_540__1___1_1679098803[] = {
/* columns rows colors chars-per-pixel */
"32 32 226 2 ",
"   c #4AB237",
".  c #39A433",
"X  c #2F992E",
"o  c #3EA733",
"O  c #2E9D2C",
"+  c #2E9B2D",
"@  c #319A2F",
"#  c #2C982C",
"$  c #48B037",
"%  c #3AA433",
"&  c #2E992D",
"*  c #41AA35",
"=  c #329C30",
"-  c #33A02F",
";  c #379F32",
":  c #3FA834",
">  c #45AD36",
",  c #3AA533",
"<  c #2E992E",
"1  c #369F32",
"2  c #42AA36",
"3  c #3BA036",
"4  c #369D34",
"5  c #3AA133",
"6  c #369B33",
"7  c #2E9A2D",
"8  c #2E9C2D",
"9  c #2F9D2C",
"0  c #3A9F35",
"q  c #379B34",
"w  c #3AA732",
"e  c #329A31",
"r  c #319632",
"t  c #3A9E35",
"y  c #369E34",
"u  c #319533",
"i  c #41A538",
"p  c #40A735",
"a  c #35A22F",
"s  c #2F9C2E",
"d  c #2E9D2D",
"f  c #319E2E",
"g  c #3FA437",
"h  c #3AA134",
"j  c #40A835",
"k  c #35A22E",
"l  c #319E30",
"z  c #339932",
"x  c #3AA731",
"c  c #34A02F",
"v  c #40A337",
"b  c #3AA233",
"n  c #3BA631",
"m  c #33A12F",
"M  c #2D962F",
"N  c #3B9F36",
"B  c #3DA737",
"V  c #42A438",
"C  c #2E982E",
"Z  c #2D9B2C",
"A  c #329B30",
"S  c #2E972F",
"D  c #3A9E36",
"F  c #3CA537",
"G  c #41A338",
"H  c #319B2F",
"J  c #319C2E",
"K  c #339F32",
"L  c #2C9230",
"P  c #2D972E",
"I  c #3C9F36",
"U  c #2F9E2D",
"Y  c #2F9A2F",
"T  c #2F9730",
"R  c #339B30",
"E  c #369E31",
"W  c #3FA934",
"Q  c #349B31",
"!  c #2F972F",
"~  c #47B236",
"^  c #369F31",
"/  c #44AB36",
"(  c #38A333",
")  c #3EA634",
"_  c #2E982D",
"`  c #3FA734",
"'  c #2F9F2D",
"]  c #2D9B2D",
"[  c #3BA833",
"{  c #339A32",
"}  c #2F9431",
"|  c #45AA37",
" . c #3CA633",
".. c #309730",
"X. c #349D31",
"o. c #379E34",
"O. c #369B34",
"+. c #309C2E",
"@. c #2E9E2C",
"#. c #32A12E",
"$. c #359D32",
"%. c #41A636",
"&. c #48B336",
"*. c #3DA236",
"=. c #3BA234",
"-. c #35A32F",
";. c #329C2F",
":. c #339E30",
">. c #2F9B2E",
",. c #339E32",
"<. c #2E9430",
"1. c #329930",
"2. c #329831",
"3. c #3CA435",
"4. c #3A9B36",
"5. c #2D982E",
"6. c #3B9E36",
"7. c #42A338",
"8. c #3CA536",
"9. c #43A339",
"0. c #339C30",
"q. c #349A31",
"w. c #46B035",
"e. c #38A431",
"r. c #2C9B2C",
"t. c #2D992D",
"y. c #2E962F",
"u. c #2B972D",
"i. c #379E31",
"p. c #2E972E",
"a. c #46B136",
"s. c #3AA333",
"d. c #30992F",
"f. c #47B136",
"g. c #38A032",
"h. c #3DAA34",
"j. c #3DA533",
"k. c #349D32",
"l. c #2F9D2D",
"z. c #45AC36",
"x. c #349E32",
"c. c #329D30",
"v. c #329F31",
"b. c #3AA631",
"n. c #49B336",
"m. c #3DA732",
"M. c #30A02D",
"N. c #41A536",
"B. c #309D30",
"V. c #3EA833",
"C. c #339D30",
"Z. c #309B2E",
"A. c #34A032",
"S. c #2F9631",
"D. c #339A30",
"F. c #319831",
"G. c #3CA335",
"H. c #3B9D35",
"J. c #309C2D",
"K. c #2C9A2C",
"L. c #349A32",
"P. c #3C9E36",
"I. c #319C2F",
"U. c #3D9E36",
"Y. c #2D9A2D",
"T. c #2E982F",
"R. c #329E2F",
"E. c #3CA334",
"W. c #44AC35",
"Q. c #40A934",
"!. c #3DA534",
"~. c #339B31",
"^. c #3EA534",
"/. c #329B32",
"(. c #329732",
"). c #3B9E35",
"_. c #3AA733",
"`. c #329733",
"'. c #2F9C2D",
"]. c #329B31",
"[. c #329633",
"{. c #309F2D",
"}. c #329E31",
"|. c #349F2F",
" X c #31A02E",
".X c #309B2F",
"XX c #32A02E",
"oX c #2E9331",
"OX c #2D972D",
"+X c #3CA637",
"@X c #41A337",
"#X c #329D2F",
"$X c #34A031",
"%X c #309631",
"&X c #33A031",
"*X c #319631",
"=X c #48B036",
"-X c #2F9A2E",
";X c #3DA634",
":X c #2D9C2C",
">X c #2F992F",
",X c #2C972D",
"<X c #46AF35",
"1X c #38A134",
"2X c #2E9A2E",
"3X c #3FA536",
"4X c #32A02F",
"5X c #43AC35",
"6X c #359D31",
"7X c #3CA136",
"8X c #3BA035",
"9X c #379C33",
"0X c #329A32",
"qX c #349B32",
"wX c #2F9F2C",
"eX c #3FA337",
"rX c #34A12E",
"tX c #2F9B2D",
"yX c #309A2F",
"uX c #2F9332",
"iX c #3DA037",
"pX c #3FA838",
"aX c #44A639",
"sX c #2E9431",
"dX c #2F9432",
"fX c white",
/* pixels */
"  . X o O + @ # $ % & * = - ; : > , < o O + @ # $ % & * = - 1 2 ",
"3 4 5 6 O 7 8 9 0 4 5 q w = e r t y 5 6 O 7 8 9 0 4 5 q w = e u ",
"i 5 p a s 7 d f g h j k l z x c v b p a s 7 d f g h j k l z n m ",
"M N B V C + Z A S D F G H J K L P I B V C + Z A S D F G H J K L ",
"U C Y T R - E W Q ! ~ ^ / ( C ) O C Y T R - E W Q ! ~ ^ / ( _ ` ",
"' ] 8 U [ = { } |  ...X.0 o.5 O.O + 8 U [ = { } |  ...X.0 o.5 O.",
"+.7 d @.l z n #.$.%.&.` *.=.j a s 7 d @.l z n #.$.%.&.` *.=.j -.",
"X + Z ;.:.>.,.<.1.2.3.4.5.6.F 7.C + Z ;.:.>.,.<.1.2.3.4.5.6.8.9.",
"0.- ^ : q.X w.e.r.t.y.u.i.p.a.s.d.- ^ : q.X w.e.r.t.y.u.i.p.f.g.",
"h.= { } | j...k.O + l.r.z. ...x.w c.{ } | j...k.O + l.r.z. ...k.",
"v.z b.#.$.%.n.m.+ 7 d M.x.N.n.m.B.z b.#.$.%.n.m.+ 7 d M.x.%.&.V.",
"C.Z.A.S.D.F.G.H.5.J.K.< L.F.G.P.I.Z.A.S.D.F.G.H.5.J.K.< L.F.G.U.",
"l.Y.T.Z.;.R.Q E.W.. < Q.H R.Q !.K.Y.T.Z.;.R.Q E.W.. < Q.H R.~.^.",
"' 7 8 l.[ c./.(.).o.5 q _.c./.`.'.+ 8 l.[ c./.(.).o.5 q _.c.].[.",
"+.Y.d {.}.z b.|.v 5 j k l z b. X.XY.d {.}.z b.|.v 5 j k l z b.XX",
"C '.K.C 0.Z.A.oXOXI +X@X#XZ.$X%X_ '.K.C 0.Z.A.oXOXI +X@X#XZ.&X*X",
"=X( -X;X:XY.>X,X<X1X2X3X@ 4XE ) 5X. -X;X:XY.>X,X<X1X2X3X@ 4X6Xj ",
"7X4 5 O.O + '.9 8Xy 5 9Xw c.0Xr t o.5 O.O + '.9 8Xy 5 9Xw c.0X[.",
"i 5 p a s 7 d f g h j k l z x c v b p a s 7 d f g h j k l z b.m ",
"M N B V C + Z A S D F G H J K L P I B V C + Z A S D F G H J K L ",
"U C Y T R - E W Q ! ~ ^ / ( C ) O C Y T R - E W Q ! ~ ^ / ( _ ` ",
"' ] 8 U [ = { } |  ...X.0 o.5 O.O + 8 U [ = { } |  ...X.0 o.5 O.",
"+.7 d @.l z n #.$.%.&.` *.=.j a s 7 d @.l z n #.$.%.&.` *.=.j -.",
"X + Z ;.:.>.,.<.1.2.3.4.5.6.F 7.C + Z ;.:.>.,.<.1.2.3.4.5.6.8.9.",
"0.- ^ : q.X w.e.r.t.y.u.i.p.a.s.d.- ^ : q.X w.e.r.t.y.u.i.p.f.g.",
"h.= { } | j...k.O + l.r.z. ...x.w c.{ } | j...k.O + l.r.z. ...k.",
"v.z b.#.$.%.n.m.+ 7 d M.x.N.n.m.B.z b.#.$.%.n.m.+ 7 d M.x.%.&.V.",
"C.Z.A.S.D.F.G.H.5.J.K.< L.F.G.P.I.Z.A.S.D.F.G.H.5.J.K.< L.F.G.U.",
"l.Y.T.Z.;.R.qXE.W.. < Q.H R.Q !.K.Y.T.Z.;.R.qXE.W.. < Q.H R.~.^.",
"' 7 8 l.[ c./.(.).o.5 q _.c./.(.'.+ 8 l.[ c./.(.).o.5 q _.c./.[.",
"+.7 d wXl z b.|.eX5 p rXl z b.XX.X7 d wXl z b.|.eX5 p rXl z b.XX",
"C tX] yX0.+.A.uXP iXpXaXH +.A.sX& tX] yX0.+.A.uXP iXpXaXH +.A.dX"
};
