/* XPM */
static char *tumblr_5310eb96570ee4e51acae3ae0f57fd2e_cac009e7_540__1___1___1_1679180300[] = {
/* columns rows colors chars-per-pixel */
"55 55 18 1 ",
"  c #2D972F",
". c #2E9B2D",
"X c #319C2F",
"o c #2F9530",
"O c #2F9830",
"+ c #309731",
"@ c #349C31",
"# c #399F34",
"$ c #33A02F",
"% c #36A131",
"& c #3BA334",
"* c #3EA834",
"= c #3FA538",
"- c #40A636",
"; c #42AB35",
": c #42A438",
"> c #42A839",
", c #4BB337",
/* pixels */
",;&O@&&$.... $;;&XX;&$X$%%-;;-%XX&%..XX..;;&%X%-$XX%%-;",
";;&@@%$$....XX;-&XX&&%%@@#%--*%@#%$$.....&;&XX&&%$$X##&",
"=###%#X......X&#####%&%X@+@@###%##X......#&#####&&X@@++",
":&#&*%$......$&#&&&#%%@@@%@#=#&&&XX......#&#&-%@%%X@#@@",
"=&#**%@X....X#&&#&&%%@+@$&X%##--&%XX....$&&&&:&$@@+%&%X",
"+##&*:%X....X@+@&&*&%XX@%@++@#&::-@X...XXX@##-:&@XXX%X ",
"o+#&&##@XXXX@@+@#&--&#X$$@+O.@#&-#XX..XXXX.@#:-&%%@%@++",
".X++@@+@X$X$&&X+X;;&&-&%.@&@..++X+XXXX#%-#.+&;;%&*%@.%&",
"$$....$$%%@@#%&#$&&@#:&#@@&%......$$$X@##&&&&&&#&-&@@#-",
"......$$%$@++#-;&@@@####&%@@.....$$*$X@XX&-&XXX#&##%&%@",
"......$&@@%%X#&&;-;&&##&*&#X......$&@@%$X#&-;-&&=&&&&%@",
".....$.X@@%%XX@#-;;:&&#&*&%$......$X+@&%XX#&;;--##&&-&%",
"......XXXOX%+X+@#&-#@@@&&:-#. ..XXXXXX$X++X+#&-#@@@-&--",
"O...X%#XXX$&@+X.X@#@+X@#&--@X..XXX@XXX%$XXX+XX@@++X&---",
"@X$%%&&@XX&;&X... o X#@@;;*@XXX$&&#XX#--$X... ..@X+&;&%",
"&%$@@@%-%#%&%$.... .X-%@%&#%%$X@X#&&##&&$X .....&-#&&##",
"*&@X@@@-;&#XXX......%;;%@@%%&%@@++&;*%@@@X......&;*#@@@",
"%@@##XX#&--;-$......$&**;;&%$@@%%X%&--;&&$.....$%&---**",
"%O+%%$X@#-;;-&X...$.+@#*;;-%@+@%$$@@#-;;&X.....X@%#;;;&",
"%@X@%@+X+X&-&X .....+@@@&-##X.X%%+++@#--@X.....X+@@&-&:",
".$..XX++X+#####&$.X@@@+@@&&@...@O.OX@@#&###XX.XX@@X@&&#",
"......XXXXX@#&--$.@*%XXX@@&%......@XX@+@-;;&XX&&@@X++&&",
"......$%#XX@##&-%@##&%%@@##O...O.$%%%@@@@&:#&X#&%%%X+#+",
"$....X$&%@@@+###&%&@%&%@@+OO.....$%%%O@@+####&##%&@@@#+",
".....$$$@@%%%#-#&&-%%%@@%%$.X....$$%+@&$#&&&&*&@%%@@&%$",
"......$O@+%%X@###*-%$X@+&%@........@@@%%@+#&&=&&%O+%%$X",
".......OXXXX+o+@#==&%@XX%@++......XX@X%O+ +#*&:&%XXX%++",
"&%%..%%.X... X%&#%#-&XXX$@%%%%..X%XX..@O+@&&#%&&@XXX%#%",
";;%@.%%X.....@;=&O@&%@$$@#&;;*@@%%%......&;&%@%&%O%@@&*",
">&&#@#%......@&&###%%&$@@@@#&&&@#&@.....X%-%@$##%%X@@@+",
"-##%%#@X...$XX####&@%&@@@@+###&&%@X...X.X###&&%%&%@@#++",
"::&&-%$X.....&=&&**%$X@@$&@#=#&&&$X....XX&&&&=&$X%@@&%%",
"#&&&=&%.....X@##&=*#@@@@%%@@##&=*#@.....X%##&=*%XX+%%XX",
"o+#===&+....XX++#&==%@XX@@  +#&*==@.....+X+#&=:&@XX%%+ ",
".++@%#%OXXX%%%@+#*;&&&%@X@@+.X+%#@@+XXX%&XX@%;=&&&%@.@#",
"...O.OO$@$$@&&@@@&;%&;-%X@&%....X+X@$@%&&&@+%;&#*=&@@%&",
"$.....$$%X@@@#-&%#X##&##@#%@X...X.%%%$@+@&-&%@@@&&##@##",
"$.....$$%X#X@@---&%%#&##*%#X.....X%%%@@@+&--*#%%###&&##",
".......$@@#&XX#&-;;--#&&**@XX.....$@O@%%X##-;;;-&#&&-%$",
"......$$+@%%XX@@#;;-##@-=&&@.......$O%%%XX@#-;-&##&-&-&",
" .XXXXXXXXXXX+X+.@&#@+@#&=:#....XX@@XXXX++X+@&#@+X@-&-:",
"XXXXX&&X+X&-%X+X..+++@XX=;*@O.$X$-%XX$-&XX..+X++XX+&;-&",
"XXX##&&#XX&;%$...  .X#XX=*%%@X%@#-#@X@-*%X..  +.##X%;&#",
"*&@XXX#--&#X$X......&--&@X%&%$@@XX#;&&#X@X.....X&;&#@@@",
"*%@@XXX&--&&%XX.....$---&%%&%%@%XX#;--#&$X.....$&;-&%%&",
"$X@%%$$#&;;;;&.....$$#&-;,*$O@@%@@X##;;;&$.....$@#*;;=*",
"@XX@&X+@X#-;&#......X@@#--&%@O@%X@XX#-;;&X......+@#-;;&",
"XXX@#++X+X#&#XXXX..X+@+@&&&@X.X+@o@@+X#&#X......@@+@&&#",
"X....O.+X@@%&&*&@XX&%XX+@&&@....XXXXX@##&-*%@XX&XXX@@&&",
".... .X%%O@@#&--%@@&&$XX@@&@.... XX$XXX##:-&%+#*%@XX@#&",
"$.....$%%@@++##=####%&%@@+@+......$&%XX++#&##%##&%$@+++",
"$....$$%%@%%@@##&&%#%%%@@%@.....XX$&#XX#####&&#@&%@@&@@",
"X....$.$O@%%@#&&&&*%$%+@%%%@+.....XXX@%%%&&#&=&X%@@@&%$",
".......$@@%%@++#=*:*%@.@%%O......XX@X@X#++@#&=-*@O.%%@O",
".o......XX@@+o @#:>:&@XX@@o ..O..X@XXX%@o +#->>:%.O%@Oo"
};
