/* XPM */
static char *char_a_p1_0bas_humn_v01__1__removebg_preview__1_1679098802[] = {
/* columns rows colors chars-per-pixel */
"32 32 131 2 ",
"   c None",
".  c #6A4A39",
"X  c #6E4E3C",
"o  c #734E37",
"O  c #744F3D",
"+  c #79513D",
"@  c #5C4B47",
"#  c #635042",
"$  c #6C5846",
"%  c #6E5748",
"&  c #705541",
"*  c #715844",
"=  c #745A46",
"-  c #7C5942",
";  c #785B44",
":  c #655950",
">  c #725F57",
",  c #7C6155",
"<  c #796358",
"1  c #7D665B",
"2  c #7A655C",
"3  c #7C6461",
"4  c #825A44",
"5  c #8A614E",
"6  c #8D6B53",
"7  c #886A59",
"8  c #957256",
"9  c #99715A",
"0  c #9D7A5D",
"q  c #AB785F",
"w  c #886F62",
"e  c #857368",
"r  c #8B766D",
"t  c #967962",
"y  c #9A7C62",
"u  c #997C65",
"i  c #8F7E70",
"p  c #A47E60",
"a  c #A07B65",
"s  c #A67C66",
"d  c #9F8067",
"f  c #938071",
"g  c #9F867B",
"h  c #BD8C65",
"j  c #B3886D",
"k  c #A28873",
"l  c #AF8976",
"z  c #A48778",
"x  c #A98F78",
"c  c #AA8F7D",
"v  c #B08770",
"b  c #BD8D73",
"n  c #AE927A",
"m  c #AC927C",
"M  c #B09175",
"N  c #B99271",
"B  c #B89679",
"V  c #BA997F",
"C  c #BF997E",
"Z  c #C79568",
"A  c #C89E7E",
"S  c #CA9F7E",
"D  c #D4A17C",
"F  c #A78E87",
"G  c #A49182",
"H  c #A19184",
"J  c #AA9685",
"K  c #AD9784",
"L  c #AF9784",
"P  c #AD9687",
"I  c #A99A84",
"U  c #AD998C",
"Y  c #BA9A81",
"T  c #B2968C",
"R  c #BA9788",
"E  c #B49E8B",
"W  c #B09F8D",
"Q  c #B1A08B",
"!  c #B0A08E",
"~  c #B3A08E",
"^  c #B7A08F",
"/  c #AFA19C",
"(  c #B9B0AE",
")  c #C7A386",
"_  c #C6A688",
"`  c #C6A28F",
"'  c #C1A48C",
"]  c #C1A68F",
"[  c #CDA788",
"{  c #D0A288",
"}  c #D6A98A",
"|  c #DCB48B",
" . c #CDAC92",
".. c #CCAE94",
"X. c #D7A991",
"o. c #D1AD9A",
"O. c #D7AF9B",
"+. c #D6B195",
"@. c #D9B598",
"#. c #E6BD99",
"$. c #E2B99E",
"%. c #E2BD9D",
"&. c #C9B3A3",
"*. c #C1B0A8",
"=. c #DABAA0",
"-. c #D9BEA0",
";. c #DBBCA3",
":. c #DABDA7",
">. c #D7B8AA",
",. c #D5BEAA",
"<. c #C2B9B5",
"1. c #CBBCB3",
"2. c #E9BCA2",
"3. c #E0C19A",
"4. c #F0C99B",
"5. c #CBC2B3",
"6. c #CDC2B9",
"7. c #DAC6B2",
"8. c #E7C3A1",
"9. c #E1C3A8",
"0. c #E5C7AD",
"q. c #F0CEA1",
"w. c #F3CAA9",
"e. c #F6CEA9",
"r. c #F3CFAF",
"t. c #F9D1AB",
"y. c #F8D0AF",
"u. c #F6D1B1",
"i. c #F7D1B2",
"p. c #DFDCCD",
"a. c #EDE2D9",
/* pixels */
"                                                                ",
"                                                                ",
"                                                                ",
"                                                                ",
"                                                                ",
"                                                                ",
"                  ~ Q                                           ",
"              a.^ M 3.q.e.w.8._                                 ",
"              1.c ) | 4.t.y.i.9.E                               ",
"              *.z C h Z #.e.i.=.J                               ",
"              / , a } D ) N [ Y f                               ",
"              ( > . v 2.@.B p ' i                               ",
"                <.< O s V ..;.,.H                               ",
"                  6.X 4 - d ' K                                 ",
"                  5.n  .u m t K                                 ",
"                p.I -.%.y 7.k *                                 ",
"                  ~ :.) o K G #                                 ",
"                  r O.Z + w e :                                 ",
"                  3 ` } 9 7 %                                   ",
"                  U 4 s j 6 &                                   ",
"                    l X.$.0 ;                                   ",
"                  z R O.+.8 =                                   ",
"                  3 T >.:.x $                                   ",
"                  @ 3 F &.W                                     ",
"                                                                ",
"                                                                ",
"                                                                ",
"                                                                ",
"                                                                ",
"                                                                ",
"                                                                ",
"                                                                "
};
