/* XPM */
static char *unnamed_4_removebg_preview__3_1679180301[] = {
/* columns rows colors chars-per-pixel */
"55 55 245 2 ",
"   c None",
".  c #1A0E0B",
"X  c #170D08",
"o  c #1B1309",
"O  c #1C1717",
"+  c #221205",
"@  c #2A190A",
"#  c #241C18",
"$  c #341F10",
"%  c #34230D",
"&  c #3B270A",
"*  c #2A2219",
"=  c #332514",
"-  c #32261B",
";  c #332C1D",
":  c #3A2C19",
">  c #3A2714",
",  c #3E321C",
"<  c #35290A",
"1  c #1D1E20",
"2  c #221F23",
"3  c #242224",
"4  c #2B2926",
"5  c #342C22",
"6  c #372F2E",
"7  c #3B3423",
"8  c #363329",
"9  c #3A3832",
"0  c #2B2B30",
"q  c #401E0B",
"w  c #472B0D",
"e  c #462E15",
"r  c #43351C",
"t  c #4D341C",
"y  c #4A3B1C",
"u  c #453413",
"i  c #51361D",
"p  c #523D1B",
"a  c #563815",
"s  c #593210",
"d  c #6D3413",
"f  c #703516",
"g  c #4A3B22",
"h  c #473926",
"j  c #523A23",
"k  c #543623",
"l  c #473E32",
"z  c #422D22",
"x  c #613A23",
"c  c #723F29",
"v  c #53421C",
"b  c #5C441E",
"n  c #584112",
"m  c #4D401E",
"M  c #784518",
"N  c #4C412C",
"B  c #4B4021",
"V  c #5B4C23",
"C  c #594B2C",
"Z  c #544529",
"A  c #494438",
"S  c #544732",
"D  c #5E543B",
"F  c #6A4A29",
"G  c #635027",
"H  c #795A26",
"J  c #664D32",
"K  c #665637",
"L  c #735A3B",
"P  c #7E4F37",
"I  c #79643C",
"U  c #6D623F",
"Y  c #544C43",
"T  c #5E5546",
"R  c #665A44",
"E  c #6D5D4A",
"W  c #766646",
"Q  c #7E7358",
"!  c #766A4E",
"~  c #843D1B",
"^  c #8C481C",
"/  c #9D5529",
"(  c #995836",
")  c #8F4C2E",
"_  c #A65C34",
"`  c #A65A2D",
"'  c #896D3B",
"]  c #886934",
"[  c #AB6437",
"{  c #B66D38",
"}  c #A3622C",
"|  c #8C5C49",
" . c #856A43",
".. c #8B784A",
"X. c #987A4A",
"o. c #956D5D",
"O. c #877657",
"+. c #8F6E4D",
"@. c #A66748",
"#. c #B46D4C",
"$. c #B56B43",
"%. c #B8744B",
"&. c #AA6E53",
"*. c #A57558",
"=. c #B97854",
"-. c #B16E51",
";. c #8B7261",
":. c #99786A",
">. c #A47E69",
",. c #B3786A",
"<. c #B45A49",
"1. c #C3784E",
"2. c #C57E57",
"3. c #C96A48",
"4. c #C07C64",
"5. c #998253",
"6. c #9C834C",
"7. c #A78758",
"8. c #B88B5A",
"9. c #AD925B",
"0. c #AA8B4F",
"q. c #8D8263",
"w. c #9C8477",
"e. c #998C70",
"r. c #AB8867",
"t. c #B38B62",
"y. c #B88B67",
"u. c #B79469",
"i. c #A58A76",
"p. c #A59174",
"a. c #B69977",
"s. c #B58B74",
"d. c #C88458",
"f. c #C98551",
"g. c #E6A35D",
"h. c #CC8B63",
"j. c #C58A68",
"k. c #D18A66",
"l. c #C2946C",
"z. c #C59968",
"x. c #D6946A",
"c. c #D99666",
"v. c #C58A76",
"b. c #C79A75",
"n. c #DB9B73",
"m. c #DB9C7B",
"M. c #D69871",
"N. c #E29868",
"B. c #E49D74",
"V. c #E89D76",
"C. c #E18B67",
"Z. c #D4A76D",
"A. c #C9A777",
"S. c #DCA27B",
"D. c #DBB477",
"F. c #C6A365",
"G. c #E4A86C",
"H. c #E7A579",
"J. c #EBB979",
"K. c #F9D57F",
"L. c #F2C476",
"P. c #A78E83",
"I. c #B88F83",
"U. c #A69788",
"Y. c #B69E82",
"T. c #B5988A",
"R. c #AF9C92",
"E. c #BBA286",
"W. c #ACA49C",
"Q. c #BCA698",
"!. c #B9AFA5",
"~. c #CB9D83",
"^. c #CE9E8A",
"/. c #D59C85",
"(. c #D39F91",
"). c #E09E89",
"_. c #C4AB8C",
"`. c #C8A987",
"'. c #DCA382",
"]. c #D5A48C",
"[. c #DDAB8C",
"{. c #D8A984",
"}. c #D3B38D",
"|. c #DEBD8F",
" X c #C8A996",
".X c #D6AC96",
"XX c #C9B395",
"oX c #DDBB99",
"OX c #D7B699",
"+X c #CBB089",
"@X c #ECAD8A",
"#X c #E7A885",
"$X c #F0AD88",
"%X c #EAB789",
"&X c #EBB393",
"*X c #E9B798",
"=X c #F2BD9C",
"-X c #F2B894",
";X c #ECB38B",
":X c #C5ADA2",
">X c #C9B5A9",
",X c #D1B4A4",
"<X c #DDBBA2",
"1X c #DEB7AA",
"2X c #D6B9AB",
"3X c #C6BDB3",
"4X c #D3BBB1",
"5X c #DCBDB3",
"6X c #D6AFA2",
"7X c #E6BBA3",
"8X c #EABFAD",
"9X c #D9C390",
"0X c #EAC886",
"qX c #F6D689",
"wX c #E5C798",
"eX c #F3C698",
"rX c #F7DB93",
"tX c #EBD095",
"yX c #DAC4A6",
"uX c #DFD1AC",
"iX c #CAC3BB",
"pX c #DAC8B7",
"aX c #DDD2BB",
"sX c #E3C4AC",
"dX c #EAC5A8",
"fX c #F5CAAC",
"gX c #F5C8A7",
"hX c #F3D6AA",
"jX c #E5C9B5",
"kX c #F6CEB4",
"lX c #E8D5B9",
"zX c #F7D7B7",
"xX c #EFD4AF",
"cX c #F6E5AC",
"vX c #DED4C4",
"bX c #DAC6C0",
"nX c #E4CEC6",
"mX c #E8D8C8",
"MX c #F5DDC6",
"NX c #E8DED2",
"BX c #ECE2CE",
"VX c #F8E5C9",
"CX c #E8E3D6",
"ZX c #F5E9D7",
"AX c #F8F3EA",
/* pixels */
"                                                                                                              ",
"                                                                                                              ",
"                                                                                                              ",
"                                                                                                              ",
"                                                                                                              ",
"                                                                                                              ",
"                                                                                                              ",
"                                                                                                              ",
"                                                                                                              ",
"                                                                                                              ",
"                                                                                                              ",
"                                                                                                              ",
"                                                                                                              ",
"                                                      _.a.u.t.t.j.                                            ",
"                                                    E.E.a.a.u.r.y.z.Z.                                        ",
"                                                u.E.E.E.E.u.r.t.t.t.z.8.                                      ",
"                                              t.p.E.Y. X Xa.u.r.u.8.l.b.8.                                    ",
"                                            u.r.a.a.}. XQ.E.a.u.b.A.`.l.s.8.                                  ",
"                                          `.+Xu.}.dX*X(.`.XXXXu.u.z.b.b.y.7.8.                                ",
"                                        +X2X}.A.S.*X#X#X#XOXyXOX8.y.l.b.a.s.7.                                ",
"                                        aXpX`.S.@X@X$X#XB./.].7X`.t.b. X>XE.s.                                ",
"                                      BXmXaX}.*X&X=X=X#XB.B.m..X].a.Q.:X4X4XQ.T.                              ",
"                                      mXvXaXyXdX*X=XgX@XV.N.m.].^.].>X4XbX4X!.!.                              ",
"                                    BXuXCXvXyXfXeX-X-X@XV.C.n.m.^.6X5X4XpX2XQ.3X                              ",
"                                  AXlXaXCXaXdXzXfXgX=X$XV.N.N.N./.].<X6X5X5X!.!.                              ",
"                                  ZXuXnXCXpXfXVXfXgXgX0XG.N.N.B.B..X1X1X5X4X!.bX                              ",
"                                  BXyXuXvXpXZXzX%X%X0X%XG.c.N.H.B.#X1XjXjX4X3X                                ",
"                                  CXyXpXpXuXZXVXhXdX%XG.g.G.N.B.S.{.[.OX5X>X!.                                ",
"                                  ZXlX%XoXfXVXVXZXAXZXL.L.eXJ.N.c.}.}.|.sXiX3X                                ",
"                                    jX3.'.MXzXzXVXVXzXL.eXhXxX0X0XZXAXZXVXnX                                  ",
"                                    lXk.&XzXfXfXzXhX%X%XeXeX*XoXD.jXBXNXlXpX                                  ",
"                                      gX;XzXkXgX=XJ.J.gXkX@X*XjX{.#XjXNXnX_.                                  ",
"                                      fX*XkX=X@XH.V.$XfX=XV.7XnX6XM.*XnXnX].                                  ",
"                                        oXsX#XH.-X-XH.gX=XC.).8X1X(.v.(.8X[.                                  ",
"                                        yX7XH.#X8X$XV.&X7XC./.(.(.5X/.v..XnX                                  ",
"                                        yXsX/.&XgX#X#Xk.v.4.<.~.v.5X X~.2X                                    ",
"                                          8X.X7X=X@X/.j.r.>.>.Q.~.6X6X X>X                                    ",
"                                          sX7X7X[.M.y.=.@.| i.R.P.:X X:X                                      ",
"                                          <X<X7X^.&.-.-.<.( | o.:.T.:X,X                                      ",
"                                          w.*X Xs.j./.M.,.,.I.:.E I.>X4X                                      ",
"                                        + ;.dXOXOX/.j.-.*.o.;.P.;.U.iXaX                                      ",
"                                      a & *.dX<X4X`.j.~.~.P.:.P.U.U.!.! q.                                    ",
"                      9X9X            M M z.*X{.OX4X X^.,.I.P.W.W.!.p.v W                                     ",
"                    A.F.u.9.7.7.a.a.0.H ^ h.*XS.l. X,XT.I.P.W.W.R.:Xp.u C !                                   ",
"                  A.*. .E h ; N ' XX7.M ^ d.H.n.d.d.v.y.r.r.U.w.i._.@.u G K Q p.X.X.                          ",
"          rXcXcXyXX.j h Y ; X % ' `.] d ^ d.M.B.k.2.2.y.=.@.>.>.i.&.} n v < v ..W B v ' D.qXK.K.K.qXqX0X      ",
"        xXcXtX_.I p : 5 A # X > O.W w s / d.x.x.k.#.%.=.&.&.&.o.) / { s < > y I Q n p e F 6.0XrXrXrXqXtX      ",
"        9X9.6.+.G y - = g = + k O.J q d _ =.k.c.k.=.#.#.#.#.<.^ M [ } < # - r C ! n i y k t G a.tXqX0XtXwX    ",
"      p.U ] 5.' G = , g Z % $ J O.j s ~ _ $.k.c.x.2.@.$.2.2.` ~ / [ i o o 1 # u ! v u e y i t S t.0XL.0XwX    ",
"      T L 5.6.H V v V C , % > R J k s ) [ 3.d.x.n.k.( @.M.h.) ` 8.F : = * 2 o @ K E w e t k k l J F.J.D.|.    ",
"    T T U 5.U V m b V > = % h e w e t q c $.h.c.N.n.{ $.m.1.[ %.F u v i ; * o < K E y t z z k Z N I Z.D.}.    ",
"    T T ....V V y g r % % < = . + $ > . . k %.c.n.V.2.3.h.d.%.F % r y 7 : < < < ! I b r y y C C B A  .z.+X    ",
"  A A B O.e.m r r 7 7 , % % @ o . 2 O X . # z ( 2.x.c.2.d.h.F r ; 5 - y B V R O.U.U v B g C C l h l l W z.    ",
"9 A 9 7 U p.B ; ; ; 7 7 ; > & < @ # X X O 3 2 3 F #.1.2.d.J e z * o % u y C K O.W.Q S Z N N h l 7 9 8 8 E     ",
"9 8 8 4 B q.U ; - ; 8 - - 5 7 B $ @ . O 1 2 3 O O x _ $.) # z - o o @ < u r , g S R T N 7 5 8 5 4 4 3 0 0 6   "
};
