/* XPM */
static char *vadiYx__1___1_1679098723[] = {
/* columns rows colors chars-per-pixel */
"32 32 198 2 ",
"   c #7E1600",
".  c #751900",
"X  c #7B1A00",
"o  c #8E0F00",
"O  c #930E00",
"+  c #831500",
"@  c #8B1300",
"#  c #831B01",
"$  c #8B1B00",
"%  c #931200",
"&  c #9B1300",
"*  c #931B01",
"=  c #9A1C01",
"-  c #A21500",
";  c #A91600",
":  c #A41C01",
">  c #AC1D01",
",  c #B31D00",
"<  c #BB1E00",
"1  c #852101",
"2  c #8C2302",
"3  c #8C2903",
"4  c #932402",
"5  c #9C2402",
"6  c #962B02",
"7  c #9D2B02",
"8  c #9C2B08",
"9  c #953202",
"0  c #9C3103",
"q  c #9B3209",
"w  c #9B3A09",
"e  c #A42402",
"r  c #AA2301",
"t  c #A42C04",
"y  c #AB2D04",
"u  c #A52D09",
"i  c #AC2D08",
"p  c #B42301",
"a  c #BB2301",
"s  c #B22B02",
"d  c #BC2B02",
"f  c #A43403",
"g  c #AB3303",
"h  c #A63900",
"j  c #AD3A05",
"k  c #A43209",
"l  c #AC3309",
"z  c #A33809",
"x  c #B33304",
"c  c #BB3404",
"v  c #B43B03",
"b  c #BC3B02",
"n  c #B7350B",
"m  c #B43D0B",
"M  c #BD3C0A",
"N  c #C42302",
"B  c #C32C02",
"V  c #CE2C03",
"C  c #D22D03",
"Z  c #C33404",
"A  c #CD3302",
"S  c #C33B01",
"D  c #CB3C04",
"F  c #C23708",
"G  c #C53E0D",
"H  c #C83B08",
"J  c #D03000",
"K  c #D13B07",
"L  c #D93907",
"P  c #D73F08",
"I  c #A5440F",
"U  c #AE410C",
"Y  c #B34205",
"T  c #BC4402",
"R  c #BF4801",
"E  c #B5440B",
"W  c #BC440C",
"Q  c #B44A0D",
"!  c #BB490C",
"~  c #BA530A",
"^  c #AD4510",
"/  c #B54710",
"(  c #BB4411",
")  c #B34B14",
"_  c #BA4A12",
"`  c #B15014",
"'  c #BA5416",
"]  c #C24402",
"[  c #CA4601",
"{  c #C64B02",
"}  c #CC4C02",
"|  c #C3450A",
" . c #CC450A",
".. c #C44B0E",
"X. c #CC4F0E",
"o. c #DD4305",
"O. c #D44C03",
"+. c #D94A04",
"@. c #D4440A",
"#. c #D34D0C",
"$. c #DC4D0A",
"%. c #C25403",
"&. c #CC5206",
"*. c #CD5C02",
"=. c #CC520B",
"-. c #C95D0E",
";. c #D45302",
":. c #DB5502",
">. c #DD5A04",
",. c #D4530D",
"<. c #DB530C",
"1. c #D15C0B",
"2. c #DE5C0B",
"3. c #C04912",
"4. c #C94F13",
"5. c #C45313",
"6. c #CB5314",
"7. c #C25914",
"8. c #CC5B15",
"9. c #C45D1A",
"0. c #CB5D1A",
"q. c #D25513",
"w. c #D35D13",
"e. c #DC5D14",
"r. c #E34C05",
"t. c #E2440A",
"y. c #E35406",
"u. c #E25D04",
"i. c #E1540D",
"p. c #E35C0C",
"a. c #E95E0B",
"s. c #E25D11",
"d. c #DB6504",
"f. c #D86C03",
"g. c #D6670D",
"h. c #DE670A",
"j. c #DB6B0B",
"k. c #CC6315",
"l. c #CC6B12",
"z. c #CD621B",
"x. c #CF6A1D",
"c. c #D46215",
"v. c #DC6316",
"b. c #D36B15",
"n. c #DE6B13",
"m. c #D6641A",
"M. c #D36C1B",
"N. c #DA6C1A",
"B. c #DF7416",
"V. c #DD7319",
"C. c #DD7A1C",
"Z. c #E36504",
"A. c #E46B06",
"S. c #EA6C06",
"D. c #E2610D",
"F. c #EC650E",
"G. c #E36D0E",
"H. c #EA6C0A",
"J. c #F06A05",
"K. c #EA7D06",
"L. c #ED720C",
"P. c #F77205",
"I. c #F27708",
"U. c #F87708",
"Y. c #E46213",
"T. c #E26A12",
"R. c #EC6B12",
"E. c #E36518",
"W. c #E56D19",
"Q. c #E47212",
"!. c #EA7312",
"~. c #E57C16",
"^. c #EA7E13",
"/. c #E3741B",
"(. c #EA741D",
"). c #E37B1B",
"_. c #EA781B",
"`. c #F17413",
"'. c #F27B14",
"]. c #F37A1A",
"[. c #E47520",
"{. c #E77D22",
"}. c #DB811A",
"|. c #F6810B",
" X c #EE8114",
".X c #E78318",
"XX c #EC831A",
"oX c #EA8A1E",
"OX c #F38314",
"+X c #F7831B",
"@X c #F58C1F",
"#X c #FA8F1F",
"$X c #E58621",
"%X c #EA8522",
"&X c #EE8B21",
"*X c #F98920",
"=X c #F29323",
"-X c #FB9725",
/* pixels */
"f $XQ + 1 ~ oXZ.%.4 @ E $Xk X 3 l..XZ.Y * $ -.C.4 X 9 }.Q.d.f * ",
"r.@X5.f T L.=.T +X:.A a.oXE f O.L.W =.'.O.J '.C.v h u.T.x n.L.[ ",
"d w.( $ 3 j % = n.s ; Z c.l + 0 y O y n.: ;  .0.8 # h e O ! e.- ",
", 4 8.M ' 2 @ 5 z.4 * : q 8.( ` # @ k 0.$ - = U 4._ I + % _ ) + ",
"D X 4 q.E.*   u @.= B s . 5 E.q.@ X m F = A e X x (.M @ #  .s 5 ",
"/.$ . 6 <.s % H Y.C +Xc.X . j $.e : <.<.L #XE . X |  .= : Y.P o.",
"T.= + X ! _.d l ( , s.,.%   # c.v.p m n a R.M @ X 2 /.#.> _ r B ",
"p.x * $ 7.p.] { g @ r <.e * 3 x.<.] { 5 % b O.= @ w n.O.R | = O ",
"M.=X-.] | 4 e O.4 + 2 C.oX&.T M $ s } $ + q oXC.]  .j * S T + + ",
"! m.e * % @ f S.t   X 8.6.e * % @ R Z.$   $ N.W = * O $ ;.&.# + ",
"q c.5 .   = j.U.x @   ^ 5.@ X + t K.J.e + + 7.W   X @ Y I.u.* + ",
"] =X7.* t g.oXZ.h.v e =.=Xm 2 g ~.~.A.1.g e n.%Xt 3 Y oXG.G.{ y ",
"o.XXW 0 b Z.x i ^.+.V i.).v 0 { 2.e | '.D V H.N.f f ;.#.e w.H.D ",
", W 5.* 3 6 O = b.i % a _ ( # 9 4 O u m.= - d 9.l $ 9 $ O E 8.O ",
"p 1 _ q.M.2 + 5 4.2 & e 3 6.w.9.# + j 3.# ; = q 6.m.) + @ ( m X ",
"+.# X ! <.= + l <.> $.S . $ q.@.O + | @.r y.g . 6 Y.c @ $ ,.B s ",
").$ . $ <...: H e.V *Xc.+ . t s.m > #.@.L -XE   . x e.i , e.D t.",
"p.= @ X Q ].Z f m ; D #.% +   k.R.s m l ; $.F o + 1 /.i.r ! > > ",
"T.=.u 7 k. .b ;.t @ 5 T.W 7 k b.S T } 4 o j G.m 5 Q b.S { ] $ O ",
"0.=X1.b s $ = ;.4   # N.&X} b e + y ;.$   6 %X).] c = + S R +   ",
"/ 6.* X @ @ T I.t # X 7.W @ # O * *.S.*   1 z.y + + O 4 j.:.+ + ",
"8 V.i   X f ^.P.b @ + U N.4   # Y OXJ.g @ # 7.8.$ X $ -.|.Z.5 @ ",
"+.=X8.0 v L.B.,.^.} d 2.=X! 7 ]  Xc.2.Q.] B ^.$Xj f ;.oX=.G.h.T ",
"J W.m 3 f [ : e !.D , @.N.i 3 v ] & x R.d < i.c.5 3 T c & X.D.p ",
"p f 0.u w 3 @ = x.8 O > m 5.8 w $ o u x.* & r ' ( 8 w # O / 9.@ ",
"d # k e.N.* + 8  .$ : s X m W.w.#   m M + a 5 1 | (./ + + | i # ",
"D.$ . j $.: @ M s.V R.=.X X ! @.% * #.$.A `.m . $ ,.Z % = s.D K ",
").* X X 4.v.p n 4.N ].w.@ X 2 v.6., 3.G V *XM + . 8 W.G , 5.B L ",
"y.e o # Q `.S Y m & s +.& @ # k.F.v T i & H H % + 3 /.y.j ! : & ",
"B.B.! g c.y x ;.4 + 4 ).b.Y T 8.e b [ $ + z ^.k.v ....e ] T + @ ",
"5.{.W y - + 5 u.7     m.C.c e & + x >.2   2 [.c.x e @ # [ { #   ",
"I 5.@ X @ % %.|.y +   ' m + X O * f.L.4 # # 0.e     % e K.d.@ + "
};
