/* XPM */
static char *vadiYx__1___1___1_1679180301[] = {
/* columns rows colors chars-per-pixel */
"55 55 192 2 ",
"   c #761600",
".  c #7D1500",
"X  c #771800",
"o  c #7C1B00",
"O  c #8F0F00",
"+  c #831500",
"@  c #8C1400",
"#  c #831A01",
"$  c #8B1B00",
"%  c #931400",
"&  c #9B1500",
"*  c #941C01",
"=  c #9C1C02",
"-  c #A31601",
";  c #A31C01",
":  c #AA1D01",
">  c #B31E00",
",  c #852102",
"<  c #8C2302",
"1  c #8F2805",
"2  c #932302",
"3  c #9B2302",
"4  c #942A04",
"5  c #9C2B03",
"6  c #9C2B08",
"7  c #963105",
"8  c #9C3304",
"9  c #9F3806",
"0  c #973109",
"q  c #9C3409",
"w  c #9E3B0A",
"e  c #A32402",
"r  c #AB2402",
"t  c #A32C03",
"y  c #AB2C03",
"u  c #A72E09",
"i  c #B22402",
"p  c #BB2401",
"a  c #B32C04",
"s  c #BA2C02",
"d  c #A43303",
"f  c #AC3404",
"g  c #A43904",
"h  c #AC3A03",
"j  c #A33509",
"k  c #AB340A",
"l  c #A43A0B",
"z  c #AC3B0B",
"x  c #B33303",
"c  c #BB3404",
"v  c #B33B03",
"b  c #BA3C03",
"n  c #B23409",
"m  c #BC3608",
"M  c #B33C0A",
"N  c #BB3E0A",
"B  c #C32C03",
"V  c #C82F06",
"C  c #C33303",
"Z  c #CA3404",
"A  c #C33B05",
"S  c #CC3B05",
"D  c #C43608",
"F  c #CB3708",
"G  c #C33D09",
"H  c #CD3C08",
"J  c #D13506",
"K  c #D23906",
"L  c #D93B07",
"P  c #D33C08",
"I  c #DB3F09",
"U  c #A7420D",
"Y  c #AC430D",
"T  c #AC480B",
"R  c #B44103",
"E  c #BD4303",
"W  c #BF4A05",
"Q  c #B5430C",
"!  c #BB440C",
"~  c #B54A0E",
"^  c #BC4A0C",
"/  c #BD520C",
"(  c #BC5E0F",
")  c #AA4410",
"_  c #AF4913",
"`  c #B54510",
"'  c #BB4610",
"]  c #B54912",
"[  c #BC4B11",
"{  c #B75113",
"}  c #BD5214",
"|  c #C34402",
" . c #CB4404",
".. c #C54B03",
"X. c #CB4C02",
"o. c #C3440C",
"O. c #CB450A",
"+. c #C44B0C",
"@. c #CC4C0C",
"#. c #D24405",
"$. c #DB4404",
"%. c #D24B05",
"&. c #D94C07",
"*. c #D2450B",
"=. c #DB4309",
"-. c #D34C0B",
";. c #D94D0C",
":. c #C55304",
">. c #CC5205",
",. c #CD5B03",
"<. c #C5530D",
"1. c #CC530C",
"2. c #CC5C0C",
"3. c #D35404",
"4. c #D55B06",
"5. c #DB5D05",
"6. c #D4520C",
"7. c #DA540C",
"8. c #D45B0C",
"9. c #DB5C0E",
"0. c #C34D12",
"q. c #CA4D12",
"w. c #C45313",
"e. c #CA5513",
"r. c #C55A15",
"t. c #CC5C14",
"y. c #CC5E19",
"u. c #D35511",
"i. c #DB5610",
"p. c #D35B14",
"a. c #DB5D12",
"s. c #D45F18",
"d. c #E1570F",
"f. c #E25D0D",
"g. c #E05B12",
"h. c #E85E11",
"j. c #CE630F",
"k. c #D36106",
"l. c #DC6305",
"z. c #D76804",
"x. c #D5630D",
"c. c #DC620C",
"v. c #DD6B0D",
"b. c #CD6214",
"n. c #CD6C12",
"m. c #CF6018",
"M. c #D36314",
"N. c #DB6314",
"B. c #D56A15",
"V. c #DB6C14",
"C. c #D46319",
"Z. c #D46B19",
"A. c #DA6D1A",
"S. c #DC7115",
"D. c #DE7816",
"F. c #D6721A",
"G. c #DC731A",
"H. c #DC7B1B",
"J. c #E36205",
"K. c #E46B06",
"L. c #EE6D06",
"P. c #E2630C",
"I. c #E36B0D",
"U. c #EA6D0A",
"Y. c #E17105",
"T. c #EC7007",
"R. c #EB7907",
"E. c #E5730C",
"W. c #EC720A",
"Q. c #E6780D",
"!. c #F27709",
"~. c #E36512",
"^. c #E86514",
"/. c #E36C14",
"(. c #E96A13",
"). c #E57314",
"_. c #EA7313",
"`. c #E37B15",
"'. c #E97B12",
"]. c #E2751A",
"[. c #E87718",
"{. c #E37B1C",
"}. c #EB7C1A",
"|. c #F07317",
" X c #F0791B",
".X c #DC8019",
"XX c #EA8116",
"oX c #E5811D",
"OX c #EC861D",
"+X c #EC891C",
"@X c #E98421",
"#X c #E98820",
/* pixels */
"d / H.n.Q < . , 7 ( D.+XY.k.:.g 2 @ 2 h b..Xr.6 # # , T n..XQ.Y.,.R 5 $ $ 5 / F.F.Y $ # , 7 ( .X`.Y.z.:.d 2 % ",
"b 1.oXZ.~ 6 < 4 R 2.S.S.l.4.x.W f e y o.B.oXr.j 2 2 g / v.S.v.c.8.>.R y e v 8.G.G.] 5 < 5 R j.D.v.x.c.,.W f t ",
"&.P.OXA.^ g d R >.I.8.w.o.8._.I.%.Z S &._.oXb.M g h ..5.I.1.! 1.c._.5. .Z #.U.[.G./ d g R 3.c.N.! +.M./.I.%.| ",
"K ;./.M.^ t 5 d E >.b y y ! /.c. .s B #.N.S.w.k 4 5 v ....x r M 8./.-.C p Z 7./.C.Q t 4 d W ..E r y @.c.P. .s ",
"p C e.0.Q 6 * 4 8 d 3 & & M M.q.a - : s O.e.! k 2 < 8 j t & & t +.M.N ; - i A @.r.M 6 * 4 g t = & = M e.1.a & ",
"> r k ] w.N z ) w 4 % @ * M t.' 6 & & : y z [ 0.M z U q $ @ % t ' r.z % & ; r M ' ! ' z l l 0 @ @ = Q 0.[ 5 @ ",
"p e 2 l ' 0.0.r.) 2 # @ * M w.) 2 = ; : e 4 Y 0.0.w.{ q # + $ u ' 0.j $ ; : = 5 l ! 0.e.} ) 2 + + = M 0.` 2 # ",
"Z a , < 6 o.p.N.' = + # 2 n O.n = r s a 5 , 2 z u.s.u.k @ . $ k N G r ; s s t < , q ' N.s.N 3 + . 2 ! G y e * ",
"7.R < o < l @.a.O.; @ * u G -.D s #.7.+.g o o 4 [ i.-.c % @ 2 N O.H D m ;.u.M < o , j u.i.G e @ $ u O.%.D s s ",
").<.4 X X < f -.O.n 3 ; c -.g.=.J ^.[.N.z #   o t ! ;.G u & r O.i.;.P =.|.].^ 4 X X < M @.*.n ; ; m i.i.P I =.",
").<.2 + . o 5 o.u.p.m i a o.q.F V d.(.p.M $ . o < f u.u.O.a i ! o.O.Z F (.(.+.3 + . o 5 ! a.q.m r a 0.O.D V K ",
"^.@.e % + . < ~ C./.-.s y M N y : H 7.6.b % @ + . q t.V.a.S a M M n i s 7.7.o.r @ + + < Q ].~.%.c a Q M i p > ",
"P.%.y = $ @ 4 ] M.~.3.A | R h e & r A 6.| ; % @ $ l b.N.7. .E E R u = ; x @. .x * $ $ 4 ~ V.c.#.| b E f = = & ",
"c.N.1.Q k 5 j <.1.o.b b X.E d * @ * f 8.p.^ z t d T r.@.| b E ..v 3 @ % t o.a.t.M y t z ^ 1.+.b E | | d $ % @ ",
"Z.H.oXV.<.E b o.M 5 3 y  .| 5 $ + # j Z.{.H.2...E E ! y = y b  .v $ + # 2 ^ {.{.B.<.R | Q M 3 3 x | E t + + @ ",
"r.Z.{.p.E f f y = % * x 3.X.5 $ + o 6 t.G.A.<.x k y e * $ t | 3.E $ + . < T G.D.t.E x y y 3 % * b X...f # + + ",
"] w.C.! e 2 $ % @ @ 5 E l.4.d $ . . 2 [ y.w.n = * $ % O $ v >.l...2 + + # 9 y.y.N u % % @ % @ 3 ..5.3.h # . + ",
"k ] t.Q = # + + @ * R k.L.J.x * + . < ) w.+.u $ . + @ $ t :.K.L.X.3 + + o 0 } w.M 3 + o + @ 2 v l.T.5.v @ + + ",
"j ] B.^ 5 $ # # 2 f 2.Q.!.J.o.t % # 1 ) r.t.z * # # $ 5 R v.R.L.3.x 3 * $ 7 w.t.0.5 # # # 2 h 2.Q.!.J.| 5 % $ ",
"b t.oXZ.~ 6 $ 4 h 2.`.XXT.J.8...f e t o.S.oXr.j 2 < d / S.'.'.U.l.:.v t e n x.D.G.~ 5 < 5 v b.`.E.E.U.4.E f t ",
" .9.OXS.^ g 5 f :.c.V.x.6.8.I.8.| s c %.(.OXb.h 5 d R 4./.M.1.4.c.P.>.c s S ~.[.G.^ d 5 f ..c.S.8.6.c.P.7.| x ",
"$.d.[.M.! d 8 h ..5.o.a y +._.P.#.C Z &.~.D.r.k 8 g E 3.3.v y N 8._.4.Z B K ~./.M.~ d 6 h >.3. .y y e.~.I.#.C ",
"B H p.e.' 6 2 8 h v y = e N V.p.c r > C -.p.w.z 2 4 g h h ; - u q.~.@.i > p  .8.t.~ t < 5 R h t & 3 ^ p.p.b e ",
"i a M ^ [ u 5 7 7 4 $ % % n t.[ y & & > n [ [ M t 4 q 4 2 @ & e ~ t.z & & ; a Q [ ' k 6 7 8 4 $ O = M w.0.y O ",
"> r 4 z [ 0.0.r.) 4 # @ * k 0.z 2 % & r t 6 Q 0.0.0.{ w $ + % u ' 0.u $ & ; 3 t z ' q.w.{ ) 4 + + = M ' z 2 + ",
"B r , 4 z 0.p.C.[ 2 # # 3 M q.z * e a r 3 < q ~ e.s.r.k + + $ k N ' t * i i e 2 1 z 0.N.s.` 6 + + 6 ! o.M 3 $ ",
"%.v < o < z q.i.G & + $ e N -.D i A #.| t o # 6 +.6.*.a % + < M q.H m a *.#.f < o 1 z u.u.m ; @ + 6 @.O.D a a ",
"/.+.< . o 4 Q ;.O.y = = n O.i.H V d.(.t.h o   , z +.-.G e = e G *.*.F P (.V.! 4 o o 2 o.q.H a = = a 6.%.F J F ",
"{.r.2 . X # 6 @.u.o.a i m O.u.H J ^.}.N.Q # . X 2 M 7.6.M r i O.q.*.P =. X{.+.5 .   # u o.a.O.y i c u.-.F L I ",
"I.@.= O + . 4 Q p./.O.s x N o.c p *.a.u.x % + . # 8 t.N.i.D a N N N s B 9.a.G e + . + < Q V.a.O.a a 0.N a p B ",
"f.%.y = @ + 1 Q M./.%.c v M n e - a S -.A = % $ # 9 t.N.f.A x M z y ; : A #.O.y % @ # < T A.P.%.c x Q k ; - - ",
"/.9.+.f t 2 g ( 2.6. .A X.R k * % = v 8.2.M t 3 6 T b.p. .| | ..v 3 % * y +.9.<.k 3 5 l / M.6.A | ..E k * O & ",
"B.V.A.1.R f v ^ ! f f x X.| 5 $ + $ j M.G.M.^ v n v +.M y f | X.v 2 + @ 4 ^ A.A.r.v x R ! ^ f y b | | t $ + @ ",
"b.A.@XG.1.b c x 5 % * y %.| 8 $ + # q t.{.{.M.E b x y 3 $ t c X.v < + + < ] ].{.S.1.b m y e * * x | ..d # + + ",
"{ y.Z.w.f t 3 = & @ 2 v 5.3.t $ . . 4 } Z.y.! y 5 = & @ $ f X.5.E 2 # o , l m.Z.+.h t 3 = % @ 2 E 4.>.f # . . ",
") [ r.n * + . @ @ % h ,.T.l.f 2 + . 1 ] 0.' y + + + @ @ 3 W l.U.>.3 + . # 0 r.0.k * + + + % * d k.K.5.v $ + + ",
"q ~ C.^ 6 + . . $ 5 <.E.!.J.b 3 @ . $ U w.t.z $ + . + 2 M z.R.L.%.t $ + + 4 } t.^ 5 + . + $ j :.E.!.J.E * @ + ",
"h +.].t.z 2 < < g W V.'.T.J.3.v 5 * 3 Q b.G.+.6 < # 4 R 2.).'.L.5.E y 3 * f t.B.M.z < < < t / V.E.W.J.%.h 3 3 ",
"#.c.+XG./ d 5 f :.v.).V.8.c.I.8.| c C 3.).#Xb.z 8 d b 4.).V.x.9.P.v.>.b c S I.}.H.} d 5 h :.v.`.x.8.I.v.4...b ",
"$.d.OXA.[ j 5 h ..5.1.o.b >.).P. .B C &./.oXt.z 5 d R 4.x.+.N ..x.U.6.A B S P.).A.^ t 5 h X.8.8.N N 8.P.P. .c ",
"Z *.N.t.M 5 2 6 v | a ; e b ~.8.C i p S 7.M.[ k 2 5 h b b r ; k @./.O.s > B -.9.t.M 6 2 d R b a - e 0.p.i.D i ",
"p c ! 0.0.k 5 q 9 8 = % = z C.w.y ; - s N 0.0.M 6 4 w 7 3 % % t ^ M.! e - : m o.w.' k 6 7 l 8 * % = M r.e.k & ",
"> r u T w.N k ) w 1 # @ % z r.] 6 % & : y j [ 0.M z ) 0 # @ % t [ r.l % & ; e k ` [ ' z l 9 < # @ = z [ [ 6 + ",
"p r < 6 z 0.s.C.~ 2 + + 2 n o.k * & : r 3 < j ' p.M.r.k $ . $ u M N 6 % : : e 2 4 z q.N.y.` 5 + + 2 N N k 2 + ",
"S x # , 7 ~ p.~.0.= @ + t N *.m r c G m 6 # < j e.a.u.z @ + * M O.O.y r D G t < , 6 ! N.s.o.3 + + t o.O.x y e ",
"P.^ < X o 6 | ;.G e % * y @.i.O.V ;.P.1.g o X < M @.*.s = @ 3 o.-.;.H F h.~.R 4 X o 4 +.;.D : % % k u.7.H Z S ",
"].1.2 o X , k O.@.G y : a O.i.H F h._.N.M #   o 5 M -.q.n e r o.q.*.H I _.[.' 5 X X < f O.u.N u : a u.@.F K L ",
"].e.3 + . . 4 ' s.N.G i m N o.D B i.(.a.M $ + o # k p.a.@.c p ! G N V F (./.o.t + . # 2 ' N.i.G i s 0.o.s V Z ",
"h. .; % + . < Q M.(.-.c v v v y : c O.%.m & + + # 0 t.~.~.| x E N n r : O.-.A r @ + + < _ V.^.%.c v ^ v r : > ",
"P.3.b t = 2 7 ~ 2.9.X.A | R k 3 % ; m %.@.f 3 * 2 l r.x.-.| b E v 6 & = a | %.! t * * 4 ~ M.8. .b R E f * % & ",
").V.B.<.Q f Q <.+.v x b X.E t $ @ * z M.V.b.! v v ^ e.! a x E X.x 2 @ @ 6 / G.V.<.R h ! <.+.b a b | E t @ @ O ",
"C.F.{.M.E v v N k 3 3 x %.| 5 $ + + q Z.{.G.<.b v x M t 2 y A X.v < + + < Q ].].C.E v b M k 3 = b  .| d # + + ",
"0.y.G.p.N f e ; & + 2 f 3.X.8 $ + . 6 r.A.N.+.n t e = @ $ t | 4.! < . # < z A.A.t.N y e = % @ * b X.X.d # . . ",
"` w.y.Q 3 $ $ @ @ @ t ..K.5.f * .   1 ] r.0.f * $ @ % O 2 R 4.P.X.3 + . # q y.r.M 5 $ $ @ % % 5 >.K.4.v # + o ",
") ` [ u @ . o @ O & h k.R.K.n 2 +   < _ [ M 2 + . + @ O 3 :.E.W.>.3 + # # 0 } [ e $ . . + % = f z.R.c.b $ + + "
};
